<svg width="24" height="25" viewBox="0 0 24 25" fill="none" xmlns="http://www.w3.org/2000/svg">
<g clip-path="url(#clip0_1_34)">
<path d="M23.1916 12.0957C23.1916 5.69161 18 0.5 11.5957 0.5C5.19161 0.5 0 5.69161 0 12.0957C0 17.8835 4.24039 22.6808 9.78394 23.5508V15.4477H6.8397V12.0957H9.78394V9.5411C9.78394 6.6349 11.5152 5.02961 14.1638 5.02961C15.4321 5.02961 16.7596 5.25609 16.7596 5.25609V8.10974H15.2974C13.8569 8.10974 13.4076 9.00365 13.4076 9.92158V12.0957H16.6236L16.1096 15.4477H13.4076V23.5508C18.9512 22.6808 23.1916 17.8835 23.1916 12.0957Z" fill="#C67A88"/>
</g>
<defs>
<clipPath id="clip0_1_34">
<rect width="24" height="24" fill="white" transform="translate(0 0.5)"/>
</clipPath>
</defs>
</svg>
