<svg width="24" height="24" viewBox="0 0 24 24" fill="none" xmlns="http://www.w3.org/2000/svg">
<g clip-path="url(#clip0_1_39)">
<path d="M12.4375 2.5709C15.5102 2.5709 15.874 2.58437 17.0824 2.63828C18.2055 2.6877 18.8119 2.87637 19.2162 3.03359C19.7508 3.24023 20.1371 3.4918 20.5369 3.8916C20.9412 4.2959 21.1883 4.67773 21.3949 5.2123C21.5521 5.6166 21.7408 6.22754 21.7902 7.34609C21.8441 8.55898 21.8576 8.92285 21.8576 11.991C21.8576 15.0637 21.8441 15.4275 21.7902 16.6359C21.7408 17.759 21.5521 18.3654 21.3949 18.7697C21.1883 19.3043 20.9367 19.6906 20.5369 20.0904C20.1326 20.4947 19.7508 20.7418 19.2162 20.9484C18.8119 21.1057 18.201 21.2943 17.0824 21.3437C15.8695 21.3977 15.5057 21.4111 12.4375 21.4111C9.36484 21.4111 9.00098 21.3977 7.79258 21.3437C6.66953 21.2943 6.06309 21.1057 5.65879 20.9484C5.12422 20.7418 4.73789 20.4902 4.33809 20.0904C3.93379 19.6861 3.68672 19.3043 3.48008 18.7697C3.32285 18.3654 3.13418 17.7545 3.08477 16.6359C3.03086 15.423 3.01738 15.0592 3.01738 11.991C3.01738 8.91836 3.03086 8.55449 3.08477 7.34609C3.13418 6.22305 3.32285 5.6166 3.48008 5.2123C3.68672 4.67773 3.93828 4.29141 4.33809 3.8916C4.74238 3.4873 5.12422 3.24023 5.65879 3.03359C6.06309 2.87637 6.67402 2.6877 7.79258 2.63828C9.00098 2.58437 9.36484 2.5709 12.4375 2.5709ZM12.4375 0.5C9.31543 0.5 8.92461 0.513477 7.69824 0.567383C6.47637 0.621289 5.63633 0.818945 4.90859 1.10195C4.14941 1.39844 3.50703 1.78926 2.86914 2.43164C2.22676 3.06953 1.83594 3.71191 1.53945 4.4666C1.25645 5.19883 1.05879 6.03437 1.00488 7.25625C0.950977 8.48711 0.9375 8.87793 0.9375 12C0.9375 15.1221 0.950977 15.5129 1.00488 16.7393C1.05879 17.9611 1.25645 18.8012 1.53945 19.5289C1.83594 20.2881 2.22676 20.9305 2.86914 21.5684C3.50703 22.2062 4.14941 22.6016 4.9041 22.8936C5.63633 23.1766 6.47187 23.3742 7.69375 23.4281C8.92012 23.482 9.31094 23.4955 12.433 23.4955C15.5551 23.4955 15.9459 23.482 17.1723 23.4281C18.3941 23.3742 19.2342 23.1766 19.9619 22.8936C20.7166 22.6016 21.359 22.2062 21.9969 21.5684C22.6348 20.9305 23.0301 20.2881 23.3221 19.5334C23.6051 18.8012 23.8027 17.9656 23.8566 16.7438C23.9105 15.5174 23.924 15.1266 23.924 12.0045C23.924 8.88242 23.9105 8.4916 23.8566 7.26523C23.8027 6.04336 23.6051 5.20332 23.3221 4.47559C23.0391 3.71191 22.6482 3.06953 22.0059 2.43164C21.368 1.79375 20.7256 1.39844 19.9709 1.10645C19.2387 0.823437 18.4031 0.625781 17.1813 0.571875C15.9504 0.513477 15.5596 0.5 12.4375 0.5Z" fill="#C67A88"/>
<path d="M12.4375 6.09277C9.17617 6.09277 6.53027 8.73867 6.53027 12C6.53027 15.2613 9.17617 17.9072 12.4375 17.9072C15.6988 17.9072 18.3447 15.2613 18.3447 12C18.3447 8.73867 15.6988 6.09277 12.4375 6.09277ZM12.4375 15.8318C10.3217 15.8318 8.60566 14.1158 8.60566 12C8.60566 9.88418 10.3217 8.16816 12.4375 8.16816C14.5533 8.16816 16.2693 9.88418 16.2693 12C16.2693 14.1158 14.5533 15.8318 12.4375 15.8318Z" fill="#C67A88"/>
<path d="M19.9574 5.85909C19.9574 6.62276 19.3375 7.23819 18.5783 7.23819C17.8146 7.23819 17.1992 6.61827 17.1992 5.85909C17.1992 5.09541 17.8191 4.47998 18.5783 4.47998C19.3375 4.47998 19.9574 5.0999 19.9574 5.85909Z" fill="#C67A88"/>
</g>
<defs>
<clipPath id="clip0_1_39">
<rect width="23" height="23" fill="white" transform="translate(0.9375 0.5)"/>
</clipPath>
</defs>
</svg>
